<?xml version="1.0" encoding="UTF-8" standalone="no"?>
<!-- Created with Inkscape (http://www.inkscape.org/) -->

<svg
   width="122.59003mm"
   height="39.833565mm"
   viewBox="0 0 122.59003 39.833565"
   version="1.1"
   id="svg5"
   xmlns="http://www.w3.org/2000/svg"
   xmlns:svg="http://www.w3.org/2000/svg">
  <defs
     id="defs2" />
  <g
     id="layer1"
     transform="translate(-54.162575,-38.962994)">
    <g
       aria-label="Ashwani"
       id="text236"
       style="font-weight:bold;font-size:21.1667px;font-family:Futura;-inkscape-font-specification:'Futura Bold';fill:#333333;stroke:#ffffff;stroke-width:0.2;stroke-linecap:round;stroke-linejoin:round;stroke-miterlimit:2;paint-order:markers fill stroke">
      <path
         d="m 64.464919,50.704679 -1.862669,-5.312842 -1.86267,5.312842 z m 1.100669,3.153839 h -5.926676 l -0.952502,2.772837 h -4.42384 l 6.074843,-15.959692 h 4.529674 l 6.074843,15.959692 h -4.423841 z"
         id="path1108" />
      <path
         d="m 79.599071,48.566842 q -1.058335,-0.550334 -2.074337,-0.550334 -0.529167,0 -0.867834,0.211667 -0.317501,0.211667 -0.317501,0.571501 0,0.1905 0.04233,0.317501 0.0635,0.105833 0.232834,0.211667 0.1905,0.105833 0.529168,0.1905 0.359834,0.08467 0.931334,0.211667 1.587503,0.3175 2.370671,1.143002 0.783168,0.804334 0.783168,2.074336 0,0.952502 -0.381001,1.714503 -0.381,0.762001 -1.058335,1.291169 -0.677334,0.508001 -1.629836,0.783168 -0.952501,0.296334 -2.095503,0.296334 -2.201337,0 -4.339174,-1.248836 l 1.397003,-2.709337 q 1.608669,1.100668 3.048004,1.100668 0.529168,0 0.867835,-0.232834 0.338667,-0.232833 0.338667,-0.592667 0,-0.211667 -0.0635,-0.338667 -0.04233,-0.148167 -0.211667,-0.254001 -0.169333,-0.127 -0.508001,-0.211667 -0.3175,-0.105833 -0.846668,-0.211667 -1.778002,-0.359834 -2.49767,-1.058335 -0.698501,-0.719668 -0.698501,-1.968503 0,-0.910168 0.338667,-1.629836 0.338667,-0.740834 0.973668,-1.248835 0.635001,-0.508001 1.524003,-0.783168 0.910168,-0.275167 2.010836,-0.275167 1.79917,0 3.492506,0.698501 z"
         id="path1110" />
      <path
         d="m 83.176219,39.062994 h 3.831173 v 8.08568 q 0.783168,-0.952502 1.587503,-1.270002 0.804334,-0.338668 1.883836,-0.338668 2.05317,0 3.090338,1.143002 1.058335,1.121835 1.058335,3.048005 v 6.900344 H 90.796232 V 51.14918 q 0,-0.825501 -0.127001,-1.333502 -0.127,-0.508001 -0.423334,-0.783168 -0.508,-0.444501 -1.227668,-0.444501 -0.973669,0 -1.502836,0.592668 -0.508001,0.571501 -0.508001,1.651002 v 5.799676 h -3.831173 z"
         id="path1112" />
      <path
         d="m 100.19424,45.772838 2.6035,5.715009 2.70934,-5.715009 h 2.413 l 2.70934,5.884343 2.7305,-5.884343 h 4.25451 l -5.67267,10.858517 h -2.56117 l -2.70934,-5.947843 -2.58234,5.947843 h -2.6035 L 95.918564,45.772838 Z"
         id="path1114" />
      <path
         d="m 121.95357,51.170347 q 0,0.529167 0.1905,0.994835 0.1905,0.4445 0.508,0.783167 0.33866,0.338668 0.78316,0.529168 0.46567,0.1905 0.99484,0.1905 0.508,0 0.9525,-0.1905 0.46567,-0.1905 0.78317,-0.529168 0.33867,-0.338667 0.52917,-0.783167 0.21166,-0.444501 0.21166,-0.952502 0,-0.508001 -0.21166,-0.952502 -0.1905,-0.465667 -0.52917,-0.804334 -0.3175,-0.338667 -0.78317,-0.529168 -0.4445,-0.1905 -0.9525,-0.1905 -0.52917,0 -0.99484,0.1905 -0.4445,0.190501 -0.78316,0.529168 -0.3175,0.338667 -0.508,0.783168 -0.1905,0.423334 -0.1905,0.931335 z m 4.826,-5.397509 h 3.85234 v 10.858517 h -3.85234 v -1.206502 q -1.22767,1.545169 -3.32317,1.545169 -1.18533,0 -2.18017,-0.423334 -0.99483,-0.4445 -1.73567,-1.227668 -0.74083,-0.783168 -1.16417,-1.841503 -0.40216,-1.058335 -0.40216,-2.30717 0,-1.164169 0.40216,-2.201337 0.40217,-1.058335 1.12184,-1.841503 0.71967,-0.783168 1.7145,-1.227669 0.99484,-0.465667 2.20134,-0.465667 2.032,0 3.3655,1.418169 z"
         id="path1116" />
      <path
         d="m 133.23538,45.772838 h 3.83117 v 1.375836 q 0.78317,-0.952502 1.5875,-1.270002 0.80434,-0.338668 1.88384,-0.338668 1.143,0 1.94734,0.381001 0.8255,0.359834 1.397,1.037168 0.46567,0.550334 0.635,1.227669 0.16933,0.677334 0.16933,1.545169 v 6.900344 h -3.83117 V 51.14918 q 0,-0.804335 -0.127,-1.291169 -0.10583,-0.508001 -0.40217,-0.804334 -0.254,-0.254001 -0.5715,-0.359834 -0.3175,-0.105834 -0.67733,-0.105834 -0.97367,0 -1.50284,0.592668 -0.508,0.571501 -0.508,1.651002 v 5.799676 h -3.83117 z"
         id="path1118" />
      <path
         d="m 151.12123,45.772838 v 10.858517 h -3.83117 V 45.772838 Z m -4.08517,-4.16984 q 0,-0.444501 0.16933,-0.825501 0.16933,-0.402168 0.46567,-0.698501 0.29633,-0.296334 0.67733,-0.465668 0.40217,-0.169333 0.84667,-0.169333 0.4445,0 0.8255,0.169333 0.40217,0.169334 0.6985,0.465668 0.29634,0.296333 0.46567,0.698501 0.16933,0.381 0.16933,0.825501 0,0.444501 -0.16933,0.846668 -0.16933,0.381001 -0.46567,0.677334 -0.29633,0.296334 -0.6985,0.465668 -0.381,0.169333 -0.8255,0.169333 -0.4445,0 -0.84667,-0.169333 -0.381,-0.169334 -0.67733,-0.465668 -0.29634,-0.296333 -0.46567,-0.677334 -0.16933,-0.402167 -0.16933,-0.846668 z"
         id="path1120" />
    </g>
    <g
       aria-label="Sajeevan"
       id="text292"
       style="font-weight:bold;font-size:21.1667px;font-family:Futura;-inkscape-font-specification:'Futura Bold';fill:#cb3b44;stroke:#ffffff;stroke-width:0.2;stroke-linecap:round;stroke-linejoin:round;stroke-miterlimit:2;paint-order:markers fill stroke">
      <path
         d="m 91.943671,67.943876 v 4.699007 h 0.338667 q 0.105833,-0.296334 0.232833,-0.381 0.127001,-0.105834 0.423334,-0.105834 0.211668,0 0.635002,0.127 0.4445,0.127001 0.994834,0.275167 0.571501,0.127001 1.206502,0.254001 0.656168,0.127 1.312336,0.127 1.312335,0 2.37067,-0.402167 1.079501,-0.423334 1.841501,-1.121835 0.78317,-0.698501 1.2065,-1.629836 0.42334,-0.931335 0.42334,-1.968503 0,-1.058335 -0.40217,-1.778003 -0.381,-0.719668 -1.016,-1.227669 -0.635,-0.508001 -1.4605,-0.825501 -0.804338,-0.338667 -1.672173,-0.613834 -0.846668,-0.275168 -1.672169,-0.529168 -0.804334,-0.254 -1.439335,-0.592668 -0.635001,-0.359833 -1.037169,-0.846668 -0.381,-0.486834 -0.381,-1.227668 0,-0.486834 0.232833,-0.952502 0.232834,-0.465667 0.677335,-0.846668 0.4445,-0.381 1.079501,-0.613834 0.656168,-0.232834 1.502836,-0.232834 1.037168,0 1.714503,0.359834 0.677334,0.359834 1.121838,0.952502 0.4445,0.571501 0.71966,1.291168 0.29634,0.719668 0.55034,1.460503 h 0.27517 v -4.021673 h -0.33867 q -0.10583,0.254 -0.21167,0.359834 -0.0847,0.08467 -0.381,0.08467 -0.254,0 -0.5715,-0.127 -0.296333,-0.127 -0.698501,-0.254 -0.402167,-0.148167 -0.931335,-0.275167 -0.529167,-0.127001 -1.227668,-0.127001 -1.100669,0 -2.05317,0.381001 -0.931335,0.359834 -1.608669,0.973668 -0.677335,0.592668 -1.058335,1.375836 -0.381001,0.783168 -0.381001,1.629836 0,1.143002 0.359834,1.905003 0.381001,0.762001 0.994835,1.291168 0.613834,0.508001 1.397002,0.846668 0.783168,0.317501 1.608669,0.571501 0.825502,0.232834 1.60867,0.465668 0.783168,0.232834 1.397002,0.571501 0.613837,0.338667 0.973667,0.846668 0.381,0.508001 0.381,1.291168 0,0.423334 -0.16933,0.994835 -0.16934,0.550335 -0.59267,1.058335 -0.402167,0.508001 -1.121835,0.867835 -0.719668,0.338667 -1.841503,0.338667 -0.3175,0 -0.698501,0 -0.359834,-0.02117 -0.783168,-0.127 -0.402167,-0.127 -0.867834,-0.381001 -0.444501,-0.254 -0.931335,-0.740834 -0.444501,-0.423334 -0.762001,-0.910168 -0.296334,-0.508001 -0.508001,-0.973668 -0.190501,-0.486834 -0.296334,-0.889002 -0.105834,-0.423334 -0.148167,-0.677334 z"
         style="font-family:Didot;-inkscape-font-specification:'Didot Bold'"
         id="path1091" />
      <path
         d="m 110.78201,67.393542 v 2.794004 q 0,0.613834 -0.127,1.058335 -0.127,0.423334 -0.33867,0.698501 -0.21167,0.254001 -0.48683,0.381001 -0.254,0.127 -0.52917,0.127 -0.48683,0 -0.762,-0.211667 -0.27517,-0.232834 -0.42334,-0.550334 -0.127,-0.317501 -0.16933,-0.656168 -0.0212,-0.338667 -0.0212,-0.592668 0,-0.635001 0.1905,-1.037168 0.21167,-0.402167 0.52917,-0.677334 0.3175,-0.275167 0.71967,-0.444501 0.40217,-0.1905 0.80433,-0.381001 0.29634,-0.148166 0.40217,-0.254 0.127,-0.127 0.16934,-0.254 z m 4.27567,4.910674 -0.1905,-0.1905 q -0.16933,0.1905 -0.35983,0.296334 -0.16934,0.105833 -0.4445,0.105833 -0.46567,0 -0.59267,-0.296334 -0.10583,-0.3175 -0.10583,-0.719668 V 66.25054 q 0,-0.889002 -0.3175,-1.460503 -0.29634,-0.592667 -0.82551,-0.931334 -0.508,-0.338668 -1.22766,-0.465668 -0.69851,-0.127 -1.50284,-0.127 -0.6985,0 -1.35467,0.148167 -0.635,0.148167 -1.143,0.444501 -0.508,0.275167 -0.8255,0.719667 -0.29634,0.423334 -0.29634,0.973669 0,0.359834 0.10584,0.571501 0.127,0.211667 0.29633,0.338667 0.16934,0.105833 0.381,0.148167 0.23284,0.02117 0.4445,0.02117 0.14817,0 0.35984,0 0.23283,-0.02117 0.42333,-0.105833 0.21167,-0.08467 0.35983,-0.254001 0.14817,-0.1905 0.14817,-0.508 0,-0.0635 -0.0212,-0.232834 -0.0212,-0.169334 -0.0423,-0.359834 -0.0212,-0.1905 -0.0423,-0.338667 -0.0212,-0.169334 -0.0212,-0.232834 0,-0.592667 0.35984,-0.804334 0.35983,-0.232834 0.84666,-0.232834 0.762,0 1.03717,0.465667 0.27517,0.465668 0.27517,1.037169 v 1.291168 q 0,0.402168 -0.127,0.656168 -0.10583,0.254 -0.40217,0.465667 -0.29633,0.190501 -0.84667,0.381001 -0.52916,0.169334 -1.397,0.423334 -0.52917,0.169334 -1.03717,0.359834 -0.48683,0.169334 -0.889,0.465667 -0.381,0.275167 -0.635,0.698501 -0.23283,0.402168 -0.23283,1.016002 0,0.592668 0.27516,1.016002 0.27517,0.402167 0.71967,0.635001 0.4445,0.232833 0.97367,0.338667 0.52917,0.105833 1.03717,0.105833 1.12183,0 1.7145,-0.296333 0.59267,-0.296334 0.93134,-1.143002 h 0.0423 q 0.127,0.677334 0.635,1.058335 0.52917,0.381 1.60867,0.381 0.48683,0 1.03717,-0.08467 0.5715,-0.08467 0.86783,-0.529168 z"
         style="font-family:Didot;-inkscape-font-specification:'Didot Bold'"
         id="path1093" />
      <path
         d="m 117.61883,59.011528 q 0,0.613835 0.44451,1.058335 0.4445,0.444501 1.05833,0.444501 0.61383,0 1.05834,-0.444501 0.4445,-0.4445 0.4445,-1.058335 0,-0.613834 -0.4445,-1.058335 -0.44451,-0.4445 -1.05834,-0.4445 -0.61383,0 -1.05833,0.4445 -0.44451,0.444501 -0.44451,1.058335 z m 0.21167,4.847175 v 13.250354 q 0,0.825501 -0.1905,1.058335 -0.1905,0.232834 -0.5715,0.232834 -0.508,0 -0.59267,-0.232834 -0.0847,-0.232834 -0.0847,-0.444501 0,-0.232833 0.0847,-0.550334 0.0847,-0.296334 0.0847,-0.529167 0,-0.444501 -0.29633,-0.698501 -0.29634,-0.232834 -0.82551,-0.232834 -0.4445,0 -0.80433,0.254 -0.35983,0.254001 -0.35983,0.931335 0,0.846668 0.74083,1.312335 0.71967,0.486835 1.86267,0.486835 0.99484,0 1.67217,-0.402168 0.67733,-0.381 1.0795,-1.079501 0.42334,-0.698502 0.59267,-1.651003 0.1905,-0.931335 0.1905,-2.032003 v -9.969516 h -4.00051 v 0.296334 z"
         style="font-family:Didot;-inkscape-font-specification:'Didot Bold'"
         id="path1095" />
      <path
         d="m 129.34515,67.033708 h -3.38667 q 0.0212,-0.550335 0.0635,-1.143002 0.0635,-0.613834 0.254,-1.121835 0.1905,-0.529168 0.5715,-0.867835 0.40217,-0.338667 1.12183,-0.338667 0.508,0 0.78317,0.232834 0.29634,0.232833 0.42334,0.5715 0.127,0.338668 0.14816,0.677335 0.0212,0.338667 0.0212,0.571501 z m -3.38667,0.296334 h 6.24417 q 0,-1.079502 -0.381,-1.841503 -0.381,-0.783168 -0.97367,-1.270002 -0.59266,-0.486835 -1.3335,-0.719668 -0.74083,-0.232834 -1.48167,-0.232834 -1.03716,0 -1.94733,0.423334 -0.889,0.402167 -1.56634,1.079502 -0.65617,0.656167 -1.03717,1.524002 -0.381,0.867835 -0.381,1.778003 0,1.143002 0.40217,2.05317 0.40217,0.889001 1.10067,1.524002 0.71967,0.613835 1.67217,0.952502 0.9525,0.3175 2.05317,0.3175 0.93133,0 1.5875,-0.275167 0.65617,-0.254 1.10067,-0.635001 0.4445,-0.402167 0.6985,-0.846668 0.254,-0.465667 0.35983,-0.867834 l -0.29633,-0.105834 q -0.0212,0.1905 -0.21167,0.592668 -0.16933,0.402167 -0.55033,0.825501 -0.35984,0.402167 -0.9525,0.719668 -0.5715,0.3175 -1.41817,0.3175 -0.9525,0 -1.48167,-0.402167 -0.52917,-0.402167 -0.80434,-1.016002 -0.27516,-0.635001 -0.33866,-1.397002 -0.0635,-0.783168 -0.0635,-1.545169 z"
         style="font-family:Didot;-inkscape-font-specification:'Didot Bold'"
         id="path1097" />
      <path
         d="m 139.92846,67.033708 h -3.38667 q 0.0212,-0.550335 0.0635,-1.143002 0.0635,-0.613834 0.254,-1.121835 0.1905,-0.529168 0.5715,-0.867835 0.40216,-0.338667 1.12183,-0.338667 0.508,0 0.78317,0.232834 0.29633,0.232833 0.42333,0.5715 0.127,0.338668 0.14817,0.677335 0.0212,0.338667 0.0212,0.571501 z m -3.38667,0.296334 h 6.24417 q 0,-1.079502 -0.381,-1.841503 -0.381,-0.783168 -0.97367,-1.270002 -0.59266,-0.486835 -1.3335,-0.719668 -0.74083,-0.232834 -1.48167,-0.232834 -1.03717,0 -1.94733,0.423334 -0.88901,0.402167 -1.56634,1.079502 -0.65617,0.656167 -1.03717,1.524002 -0.381,0.867835 -0.381,1.778003 0,1.143002 0.40217,2.05317 0.40217,0.889001 1.10067,1.524002 0.71967,0.613835 1.67217,0.952502 0.9525,0.3175 2.05317,0.3175 0.93133,0 1.5875,-0.275167 0.65617,-0.254 1.10067,-0.635001 0.4445,-0.402167 0.6985,-0.846668 0.254,-0.465667 0.35983,-0.867834 l -0.29633,-0.105834 q -0.0212,0.1905 -0.21167,0.592668 -0.16933,0.402167 -0.55033,0.825501 -0.35984,0.402167 -0.9525,0.719668 -0.5715,0.3175 -1.41817,0.3175 -0.9525,0 -1.48167,-0.402167 -0.52917,-0.402167 -0.80434,-1.016002 -0.27516,-0.635001 -0.33866,-1.397002 -0.0635,-0.783168 -0.0635,-1.545169 z"
         style="font-family:Didot;-inkscape-font-specification:'Didot Bold'"
         id="path1099" />
      <path
         d="m 143.03992,63.562369 v 0.296334 h 1.143 l 4.21217,9.355681 h 0.16934 l 3.7465,-9.355681 h 0.97367 v -0.296334 h -2.96334 v 0.296334 h 1.62984 l -2.30717,5.863176 -2.6035,-5.863176 h 1.524 v -0.296334 z"
         style="font-family:Didot;-inkscape-font-specification:'Didot Bold'"
         id="path1101" />
      <path
         d="m 159.35943,67.393542 v 2.794004 q 0,0.613834 -0.127,1.058335 -0.127,0.423334 -0.33867,0.698501 -0.21167,0.254001 -0.48683,0.381001 -0.254,0.127 -0.52917,0.127 -0.48684,0 -0.762,-0.211667 -0.27517,-0.232834 -0.42334,-0.550334 -0.127,-0.317501 -0.16933,-0.656168 -0.0212,-0.338667 -0.0212,-0.592668 0,-0.635001 0.1905,-1.037168 0.21167,-0.402167 0.52917,-0.677334 0.3175,-0.275167 0.71967,-0.444501 0.40217,-0.1905 0.80433,-0.381001 0.29634,-0.148166 0.40217,-0.254 0.127,-0.127 0.16933,-0.254 z m 4.27567,4.910674 -0.1905,-0.1905 q -0.16933,0.1905 -0.35983,0.296334 -0.16934,0.105833 -0.4445,0.105833 -0.46567,0 -0.59267,-0.296334 -0.10584,-0.3175 -0.10584,-0.719668 V 66.25054 q 0,-0.889002 -0.3175,-1.460503 -0.29633,-0.592667 -0.8255,-0.931334 -0.508,-0.338668 -1.22767,-0.465668 -0.6985,-0.127 -1.50283,-0.127 -0.6985,0 -1.35467,0.148167 -0.635,0.148167 -1.143,0.444501 -0.508,0.275167 -0.8255,0.719667 -0.29634,0.423334 -0.29634,0.973669 0,0.359834 0.10584,0.571501 0.127,0.211667 0.29633,0.338667 0.16933,0.105833 0.381,0.148167 0.23283,0.02117 0.4445,0.02117 0.14817,0 0.35984,0 0.23283,-0.02117 0.42333,-0.105833 0.21167,-0.08467 0.35983,-0.254001 0.14817,-0.1905 0.14817,-0.508 0,-0.0635 -0.0212,-0.232834 -0.0212,-0.169334 -0.0423,-0.359834 -0.0212,-0.1905 -0.0423,-0.338667 -0.0212,-0.169334 -0.0212,-0.232834 0,-0.592667 0.35983,-0.804334 0.35984,-0.232834 0.84667,-0.232834 0.762,0 1.03717,0.465667 0.27517,0.465668 0.27517,1.037169 v 1.291168 q 0,0.402168 -0.127,0.656168 -0.10584,0.254 -0.40217,0.465667 -0.29633,0.190501 -0.84667,0.381001 -0.52917,0.169334 -1.397,0.423334 -0.52917,0.169334 -1.03717,0.359834 -0.48683,0.169334 -0.889,0.465667 -0.381,0.275167 -0.635,0.698501 -0.23284,0.402168 -0.23284,1.016002 0,0.592668 0.27517,1.016002 0.27517,0.402167 0.71967,0.635001 0.4445,0.232833 0.97367,0.338667 0.52917,0.105833 1.03717,0.105833 1.12183,0 1.7145,-0.296333 0.59267,-0.296334 0.93133,-1.143002 h 0.0423 q 0.127,0.677334 0.635,1.058335 0.52917,0.381 1.60867,0.381 0.48683,0 1.03717,-0.08467 0.5715,-0.08467 0.86783,-0.529168 z"
         style="font-family:Didot;-inkscape-font-specification:'Didot Bold'"
         id="path1103" />
      <path
         d="m 164.77809,72.346549 v 0.296334 h 5.31284 v -0.296334 h -1.33351 v -4.529673 q 0,-0.973669 0.21167,-1.693336 0.21167,-0.719668 0.55034,-1.206502 0.35983,-0.486834 0.8255,-0.719668 0.46566,-0.254001 0.97367,-0.254001 0.61383,0 0.97366,0.423334 0.35984,0.402168 0.35984,1.291169 v 6.688677 h -1.31234 v 0.296334 h 5.31284 v -0.296334 h -1.41816 V 66.37754 q 0,-1.397002 -0.78317,-2.201337 -0.762,-0.804334 -2.15901,-0.804334 -0.9525,0 -1.5875,0.296333 -0.635,0.275167 -1.03717,0.656168 -0.40216,0.381001 -0.61383,0.783168 -0.21167,0.381001 -0.29634,0.571501 h -0.0423 v -2.11667 h -3.937 v 0.296334 h 1.397 v 8.487846 z"
         style="font-family:Didot;-inkscape-font-specification:'Didot Bold'"
         id="path1105" />
    </g>
  </g>
</svg>
